Coordinates
version=1
nRows=8
nColumns=63
inDegrees=yes

Units are S.I. units (second, meters, Newtons, ...)
If the header above contains a line with 'inDegrees', this indicates whether rotational values are in degrees (yes) or radians (no).

endheader
time	pelvis_tilt	pelvis_list	pelvis_rotation	pelvis_tx	pelvis_ty	pelvis_tz	hip_flexion_r	hip_adduction_r	hip_rotation_r	knee_angle_r	knee_angle_r_beta	ankle_angle_r	subtalar_angle_r	mtp_angle_r	hip_flexion_l	hip_adduction_l	hip_rotation_l	knee_angle_l	knee_angle_l_beta	ankle_angle_l	subtalar_angle_l	mtp_angle_l	L5_S1_Flex_Ext	L5_S1_Lat_Bending	L5_S1_axial_rotation	L4_L5_Flex_Ext	L4_L5_Lat_Bending	L4_L5_axial_rotation	L3_L4_Flex_Ext	L3_L4_Lat_Bending	L3_L4_axial_rotation	L2_L3_Flex_Ext	L2_L3_Lat_Bending	L2_L3_axial_rotation	L1_L2_Flex_Ext	L1_L2_Lat_Bending	L1_L2_axial_rotation	L1_T12_Flex_Ext	L1_T12_Lat_Bending	L1_T12_axial_rotation	Abs_r3	Abs_r2	Abs_r1	Abs_t1	Abs_t2	neck_flexion	neck_bending	neck_rotation	arm_flex_r	arm_add_r	arm_rot_r	elbow_flex_r	pro_sup_r	wrist_flex_r	wrist_dev_r	arm_flex_l	arm_add_l	arm_rot_l	elbow_flex_l	pro_sup_l	wrist_flex_l	wrist_dev_l
      0.00000000	      0.14171033	     -4.44674162	     98.80401083	      0.19267077	      0.90197368	      0.49544928	     -4.34641741	      1.25444634	     -3.70179078	      9.81060104	      0.17122729	     23.50486700	     -9.77913856	      0.00000000	     -6.78335058	     -1.71033041	     22.35672851	      0.67025502	      0.01169816	     20.53879607	    -15.65612829	      0.00000000	      0.32138506	      0.39863101	     -1.28218235	      0.59684419	      0.53017925	     -1.36231875	      0.52800351	      0.96923145	     -1.36231875	      0.36731098	      0.96923145	     -1.12190956	      0.29843816	      0.81288836	     -1.04177316	      0.18363942	      0.61747944	     -0.96163676	      2.29562132	      4.50939375	     -7.13111358	      0.00000000	      0.00000000	     27.73779478	     -3.36232213	      2.77471231	     31.96274647	     -8.44351661	     87.25994970	     42.61021380	     87.82679390	     -3.01152593	     -5.63260375	     26.01520533	      1.19656251	     71.71242461	     28.45260742	     32.46454114	     -5.38158656	    -12.99670238
      0.02564103	     -0.02659669	     -5.08642000	     98.23788288	      0.19207040	      0.90084485	      0.49731582	     -3.41686991	      0.76367090	     -3.33532623	     10.37414360	      0.18106296	     24.00054730	    -10.07234665	      0.00000000	     -6.11970305	     -1.28857348	     22.05477931	      0.69041251	      0.01204997	     20.58480820	    -15.86088785	      0.00000000	      0.38541504	      0.40771623	     -1.20009579	      0.71575426	      0.54226258	     -1.27510178	      0.63319836	      0.99132124	     -1.27510178	      0.44049084	      0.99132124	     -1.05008381	      0.35789640	      0.83141493	     -0.97507783	      0.22022615	      0.63155244	     -0.90007184	      2.75298106	      4.61216751	     -6.67457275	      0.00000000	      0.00000000	     27.90807164	     -2.69671583	      4.06028938	     31.07943995	     -7.88644467	     85.98702553	     41.32971209	     87.74051161	     -4.89848195	     -6.04747437	     26.51214892	      1.29153210	     72.51719600	     28.20062623	     31.61020281	     -5.16363047	     -9.79747254
      0.05128205	     -0.14904290	     -5.35442499	     97.46623803	      0.19231922	      0.90008312	      0.49904826	     -2.97029774	      0.46839762	     -2.17806408	     10.59694243	      0.18495154	     24.36012069	    -10.57181387	      0.00000000	     -5.86343338	     -0.99937514	     21.53213011	      0.70940136	      0.01238139	     20.74790110	    -15.94369823	      0.00000000	      0.39142980	      0.41629242	     -1.06776662	      0.72692428	      0.55366892	     -1.13450203	      0.64308002	      1.01217339	     -1.13450203	      0.44736512	      1.01217339	     -0.93429579	      0.36348171	      0.84890350	     -0.86756038	      0.22366299	      0.64483696	     -0.80082496	      2.79594392	      4.70918310	     -5.93859760	      0.00000000	      0.00000000	     27.98562148	     -1.98764070	      5.10978760	     30.72453165	     -7.55577190	     85.16074230	     40.54581389	     87.80105437	     -6.49938086	     -6.20721729	     27.24165801	      1.27214731	     73.79754759	     28.14374269	     29.68826886	     -4.31188299	     -6.96872794
      0.07692308	     -0.34668542	     -5.58939610	     97.09168469	      0.19256925	      0.89962465	      0.50102272	     -2.58118736	      0.22306172	     -0.90723907	     10.71752258	      0.18705606	     24.27757970	    -11.89744769	      0.00000000	     -5.56517314	     -0.70253242	     21.17130889	      0.75329592	      0.01314749	     20.62640102	    -15.85511522	      0.00000000	      0.39948449	      0.40239599	     -0.96218256	      0.74188264	      0.53518666	     -1.02231897	      0.65631306	      0.97838561	     -1.02231897	      0.45657082	      0.97838561	     -0.84190974	      0.37096130	      0.82056590	     -0.78177333	      0.22826544	      0.62331139	     -0.72163692	      2.85347775	      4.55198390	     -5.35137073	      0.00000000	      0.00000000	     28.02122150	     -1.97610729	      5.23169870	     30.47836755	     -7.39701548	     84.11863052	     40.02495595	     87.74563732	     -7.46038531	     -6.05874876	     29.49363029	      1.51744561	     83.86245475	     27.37575460	     18.03456229	     -3.63213506	     -9.07879914
      0.10256410	     -0.53534559	     -5.79200631	     96.59063592	      0.19323882	      0.89924636	      0.50262053	     -2.25753110	     -0.00465555	      0.28188797	     10.72653508	      0.18721335	     24.18600714	    -12.74063332	      0.00000000	     -5.32024749	     -0.42965937	     20.58645163	      0.80974979	      0.01413280	     20.50976256	    -15.60604681	      0.00000000	      0.40432335	      0.38638834	     -0.85543859	      0.75086890	      0.51389649	     -0.90890350	      0.66426284	      0.93946461	     -0.90890350	      0.46210116	      0.93946461	     -0.74850876	      0.37545467	      0.78792310	     -0.69504385	      0.23103036	      0.59851554	     -0.64157894	      2.88804128	      4.37090216	     -4.75769279	      0.00000000	      0.00000000	     28.06015805	     -1.86562200	      5.55170252	     30.36459046	     -7.33578998	     83.21628113	     39.86326465	     87.82637844	     -8.20937697	     -5.62030237	     29.82053131	      1.77838158	     84.36767319	     26.52848159	     17.78824854	     -1.88509178	     -8.42966464
      0.12820513	     -0.71034915	     -5.90914432	     96.64944720	      0.19347962	      0.89903510	      0.50417108	     -2.08547959	     -0.21393758	      0.26227567	     10.70272135	      0.18679773	     24.34297115	    -12.52701037	      0.00000000	     -5.10777561	     -0.24752124	     21.04270469	      0.85446473	      0.01491322	     20.10235825	    -16.14223014	      0.00000000	      0.40290552	      0.36145387	     -0.85605483	      0.74823583	      0.48073364	     -0.90955825	      0.66193347	      0.87883893	     -0.90955825	      0.46048071	      0.87883893	     -0.74904797	      0.37413806	      0.73707673	     -0.69554455	      0.23022021	      0.55989204	     -0.64204112	      2.87791381	      4.08883843	     -4.76112014	      0.00000000	      0.00000000	     28.07166978	     -1.96923621	      5.29469616	     30.61051369	     -7.19091192	     83.40866910	     39.58192145	     87.69220641	     -9.16036536	     -5.71369709	     30.25219706	      1.90512171	     85.94771275	     26.10601694	     15.90101614	     -1.44126498	     -8.69801832
      0.15384615	     -0.86313818	     -6.04381722	     96.48321961	      0.19408715	      0.89884632	      0.50532507	     -1.91560748	     -0.41869858	      0.24572528	     10.58484865	      0.18474046	     24.27941761	    -12.10229196	      0.00000000	     -4.91586172	     -0.07910115	     20.70538306	      0.90706728	      0.01583131	     20.01354843	    -15.73318243	      0.00000000	      0.40662760	      0.33747154	     -0.79180182	      0.75514812	      0.44883715	     -0.84128944	      0.66804849	      0.82052830	     -0.84128944	      0.46473469	      0.82052830	     -0.69282659	      0.37759439	      0.68817196	     -0.64333898	      0.23234701	      0.52274342	     -0.59385137	      2.90450031	      3.81754556	     -4.40376419	      0.00000000	      0.00000000	     28.08012774	     -2.02035998	      5.09827677	     30.65740788	     -7.23045972	     83.43885646	     39.68346771	     88.01879989	     -9.86883722	     -5.02583345	     30.42967462	      2.08333551	     86.46498408	     25.66861304	     14.49769494	     -0.61428596	     -8.13171869
      0.17948718	     -0.99549711	     -6.13045805	     96.67115726	      0.19425392	      0.89881472	      0.50652645	     -1.81720769	     -0.64919987	     -0.85183300	     10.54700805	      0.18408002	     24.62054540	    -10.43514993	      0.00000000	     -4.71120985	      0.04405852	     21.07975564	      0.96718252	      0.01688052	     19.78984177	    -16.07860425	      0.00000000	      0.40589736	      0.31472786	     -0.80029622	      0.75379199	      0.41858806	     -0.85031474	      0.66684878	      0.76522933	     -0.85031474	      0.46390010	      0.76522933	     -0.70025919	      0.37691629	      0.64179306	     -0.65024068	      0.23192975	      0.48751346	     -0.60022217	      2.89928427	      3.56026455	     -4.45100750	      0.00000000	      0.00000000	     28.09034323	     -2.21960051	      4.70244673	     30.94854287	     -7.09023346	     84.90417048	     39.43808482	     87.87848761	    -11.75478945	     -5.39713415	     30.75842420	      2.13513365	     88.32804845	     25.53558156	     10.99286258	     -0.08895498	     -8.20046299
